<?xml version="1.0" encoding="iso-8859-1"?>
<!-- Uploaded to: SVG Repo, www.svgrepo.com, Generator: SVG Repo Mixer Tools -->
<svg height="800px" width="800px" version="1.1" id="Layer_1" xmlns="http://www.w3.org/2000/svg" xmlns:xlink="http://www.w3.org/1999/xlink" 
	 viewBox="0 0 512 512" xml:space="preserve">
<g>
	<path style="fill:#C69666;" d="M300.138,105.931h-52.966V88.276h-88.276v17.655H34.869C15.36,105.931,0,121.741,0,141.241V476.69
		C0,496.19,15.36,512,34.869,512h335.89c19.5,0,35.31-15.81,35.31-35.31V211.862C347.569,211.862,300.138,164.431,300.138,105.931"
		/>
	<path style="fill:#E8D5B2;" d="M234.221,201.5l-31.188-24.947L171.845,201.5c-5.217,4.175-12.95,0.459-12.95-6.223V88.278h88.276
		v106.999C247.171,201.959,239.438,205.676,234.221,201.5"/>
	<path style="fill:#71C285;" d="M512,105.931C512,47.431,464.569,0,406.069,0S300.138,47.431,300.138,105.931
		s47.431,105.931,105.931,105.931S512,164.431,512,105.931"/>
	<g>
		<path style="fill:#FFFFFF;" d="M406.069,176.552c-4.873,0-8.828-3.955-8.828-8.828V44.138c0-4.873,3.955-8.828,8.828-8.828
			s8.828,3.955,8.828,8.828v123.586C414.897,172.597,410.942,176.552,406.069,176.552"/>
		<path style="fill:#FFFFFF;" d="M467.862,114.759H344.276c-4.873,0-8.828-3.955-8.828-8.828c0-4.873,3.955-8.828,8.828-8.828
			h123.586c4.873,0,8.828,3.955,8.828,8.828C476.69,110.804,472.735,114.759,467.862,114.759"/>
	</g>
	<polygon style="fill:#E8D5B2;" points="52.966,476.69 176.552,476.69 176.552,370.759 52.966,370.759 	"/>
	<g>
		<path style="fill:#CBB292;" d="M141.241,414.897H88.276c-4.873,0-8.828-3.955-8.828-8.828s3.955-8.828,8.828-8.828h52.966
			c4.873,0,8.828,3.955,8.828,8.828S146.114,414.897,141.241,414.897"/>
		<path style="fill:#CBB292;" d="M123.586,450.207h-35.31c-4.873,0-8.828-3.955-8.828-8.828s3.955-8.828,8.828-8.828h35.31
			c4.873,0,8.828,3.955,8.828,8.828S128.459,450.207,123.586,450.207"/>
	</g>
</g>
</svg>