<?xml version="1.0" encoding="iso-8859-1"?>
<!-- Uploaded to: SVG Repo, www.svgrepo.com, Generator: SVG Repo Mixer Tools -->
<svg height="800px" width="800px" version="1.1" id="Layer_1" xmlns="http://www.w3.org/2000/svg" xmlns:xlink="http://www.w3.org/1999/xlink" 
	 viewBox="0 0 505.323 505.323" xml:space="preserve">
<g>
	<path style="fill:#C69666;" d="M359.058,186.037l-57.344,16.338l19.392-58.185l61.559-60.672H256V65.232h-91.429v18.286H36.105
		C15.909,83.518,0,99.893,0,120.089v347.429c0,20.197,15.909,36.571,36.105,36.571H384c20.197,0,36.571-16.375,36.571-36.571
		V193.232v-68.709L359.058,186.037z"/>
	<g>
		<path style="fill:#E8D5B2;" d="M242.584,182.498l-32.302-25.838l-32.293,25.838c-5.413,4.325-13.422,0.475-13.422-6.446V65.232
			h91.429v110.821C255.996,182.974,247.987,186.823,242.584,182.498"/>
		<polygon style="fill:#E8D5B2;" points="54.856,467.516 182.856,467.516 182.856,357.802 54.856,357.802 		"/>
	</g>
	<g>
		<path style="fill:#CBB292;" d="M146.285,403.516H91.428c-5.047,0-9.143-4.096-9.143-9.143s4.096-9.143,9.143-9.143h54.857
			c5.047,0,9.143,4.096,9.143,9.143S151.332,403.516,146.285,403.516"/>
		<path style="fill:#CBB292;" d="M127.999,440.087H91.428c-5.047,0-9.143-4.096-9.143-9.143s4.096-9.143,9.143-9.143h36.571
			c5.047,0,9.143,4.096,9.143,9.143S133.046,440.087,127.999,440.087"/>
	</g>
	<polygon style="fill:#EDDCC7;" points="309.357,145.474 309.284,145.547 291.108,212.19 333.595,169.712 	"/>
	<path style="fill:#D75A4A;" d="M485.354,17.949L473.953,6.548c-7.086-7.086-18.578-7.086-25.664,0l-32.75,32.741l24.238,24.238
		L485.354,17.949z"/>
	<polygon style="fill:#F29C21;" points="439.775,63.528 415.537,39.29 309.361,145.475 333.59,169.713 	"/>
	<polygon style="fill:#D6C4B1;" points="361.007,197.264 361.08,197.191 333.596,169.707 291.109,212.194 289.893,216.656 	"/>
	<path style="fill:#A34740;" d="M467.259,91.012l32.75-32.75c7.086-7.086,7.086-18.578,0-25.664l-14.656-14.647l-45.577,45.577
		L467.259,91.012z"/>
	<polygon style="fill:#E18C25;" points="333.593,169.71 361.076,197.194 467.261,91.008 439.778,63.525 	"/>
	<path style="fill:#5E5E5E;" d="M283.428,232.267c-2.341,0-4.681-0.896-6.464-2.679c-3.575-3.575-3.575-9.353,0-12.928
		l20.178-20.178c3.575-3.575,9.353-3.575,12.928,0c3.575,3.575,3.575,9.353,0,12.928l-20.178,20.178
		C288.109,231.371,285.768,232.267,283.428,232.267"/>
</g>
</svg>