<?xml version="1.0" encoding="iso-8859-1"?>
<!-- Uploaded to: SVG Repo, www.svgrepo.com, Generator: SVG Repo Mixer Tools -->
<svg height="800px" width="800px" version="1.1" id="Layer_1" xmlns="http://www.w3.org/2000/svg" xmlns:xlink="http://www.w3.org/1999/xlink" 
	 viewBox="0 0 512 512" xml:space="preserve">
<path style="fill:#3689C9;" d="M232,72H104c-8.8,0-16,7.2-16,16v88h160V88C248,79.2,240.8,72,232,72z"/>
<path style="fill:#EE2C39;" d="M408,48h-64c-8.8,0-16,7.2-16,16v120h96V64C424,55.2,416.8,48,408,48z"/>
<path style="fill:#CC202C;" d="M360,152v-40c0-8.8-7.2-16-16-16h-16c8.8,0,16,7.2,16,16v56v16h16h64v-16h-48
	C367.2,168,360,160.8,360,152z"/>
<path style="fill:#1B6FAB;" d="M192,128L192,128c0-17.6,14.4-32,32-32l0,0c-8.8,0-16,7.2-16,16v24v16h-16H88l0,0c0-8.8,7.2-16,16-16
	h80C188.8,136,192,132.8,192,128z"/>
<path style="fill:#3CB54A;" d="M328,96H224c-8.8,0-16,7.2-16,16v72h136v-72C344,103.2,336.8,96,328,96z"/>
<path style="fill:#0E9347;" d="M328,124L328,124c0,6.4-5.6,12-12,12H208v16h136v-16v-24h-4C333.6,112,328,117.6,328,124z"/>
<g>
	<path style="fill:#35495C;" d="M80,208c-0.8,0-2.4,0-3.2-0.8c-4-1.6-5.6-6.4-4-10.4l57.6-129.6c4.8-12,16.8-19.2,28.8-19.2H176
		c4.8,0,8,3.2,8,8s-3.2,8-8,8h-16.8c-6.4,0-12,4-14.4,9.6L87.2,203.2C85.6,206.4,83.2,208,80,208z"/>
	<path style="fill:#35495C;" d="M432,208c-3.2,0-5.6-1.6-7.2-4.8L367.2,73.6c-2.4-5.6-8-9.6-14.4-9.6H336c-4.8,0-8-3.2-8-8
		s3.2-8,8-8h16.8c12.8,0,24,7.2,29.6,19.2L440,196.8c1.6,4,0,8.8-4,10.4C434.4,208,432.8,208,432,208z"/>
</g>
<path style="fill:#B06328;" d="M328,80H184c-8.8,0-16-7.2-16-16V48c0-8.8,7.2-16,16-16h144c8.8,0,16,7.2,16,16v16
	C344,72.8,336.8,80,328,80z"/>
<path style="fill:#A35623;" d="M328,64H168c0,8.8,7.2,16,16,16h144c8.8,0,16-7.2,16-16V48C335.2,48,328,55.2,328,64z"/>
<g>
	<path style="fill:#FFCB5B;" d="M441.6,480H70.4c-16.8,0-31.2-12.8-32-29.6L24,232h464l-14.4,218.4C472.8,467.2,459.2,480,441.6,480
		z"/>
	<path style="fill:#FFCB5B;" d="M496,232H16c-8.8,0-16-5.6-16-13.6v-53.6c0-7.2,7.2-12.8,16-12.8h480c8.8,0,16,5.6,16,13.6v53.6
		C512,226.4,504.8,232,496,232z"/>
</g>
<g>
	<circle style="fill:#B06328;" cx="80" cy="192" r="8"/>
	<circle style="fill:#B06328;" cx="432" cy="192" r="8"/>
</g>
<path style="fill:#F7B84E;" d="M473.6,450.4L488,232H296h-40H24l1.6,24h365.6c8.8,0,16,7.2,16,16.8l-6.4,176c0,8.8-7.2,15.2-16,15.2
	H88c-8.8,0-16,7.2-16,16l0,0h184h40h145.6C459.2,480,472.8,467.2,473.6,450.4z"/>
<polygon style="fill:#F19920;" points="487.2,240 488,232 24,232 24.8,240 "/>
<path style="fill:#F7B84E;" d="M496,184v16c0,8.8-7.2,16-16,16H32c-8.8,0-16,7.2-16,16l0,0h480c8.8,0,16-7.2,16-16v-48
	C503.2,168,496,175.2,496,184z"/>
<path style="fill:#FFE278;" d="M432,168H32c-8.8,0-16-7.2-16-16l0,0h432l0,0C448,160.8,440.8,168,432,168z"/>
<g>
	<path style="fill:#F19920;" d="M184,424L184,424c-4.8,0-8-3.2-8-8V304c0-4.8,3.2-8,8-8l0,0c4.8,0,8,3.2,8,8v112
		C192,420.8,188.8,424,184,424z"/>
	<path style="fill:#F19920;" d="M232,424L232,424c-4.8,0-8-3.2-8-8V304c0-4.8,3.2-8,8-8l0,0c4.8,0,8,3.2,8,8v112
		C240,420.8,236.8,424,232,424z"/>
	<path style="fill:#F19920;" d="M280,424L280,424c-4.8,0-8-3.2-8-8V304c0-4.8,3.2-8,8-8l0,0c4.8,0,8,3.2,8,8v112
		C288,420.8,284.8,424,280,424z"/>
	<path style="fill:#F19920;" d="M328,424L328,424c-4.8,0-8-3.2-8-8V304c0-4.8,3.2-8,8-8l0,0c4.8,0,8,3.2,8,8v112
		C336,420.8,332.8,424,328,424z"/>
	<path style="fill:#F19920;" d="M376,424L376,424c-4.8,0-8-3.2-8-8V304c0-4.8,3.2-8,8-8l0,0c4.8,0,8,3.2,8,8v112
		C384,420.8,380.8,424,376,424z"/>
	<path style="fill:#F19920;" d="M136,424L136,424c-4.8,0-8-3.2-8-8V304c0-4.8,3.2-8,8-8l0,0c4.8,0,8,3.2,8,8v112
		C144,420.8,140.8,424,136,424z"/>
</g>
</svg>